<svg xmlns="http://www.w3.org/2000/svg" width="13" height="14" fill="none"><g stroke-linecap="round" stroke-linejoin="round" clip-path="url(#a)"><path stroke="currentColor" d="M6.5 11.875c1.196 0 2.166-2.183 2.166-4.875S7.696 2.125 6.5 2.125C5.303 2.125 4.333 4.308 4.333 7s.97 4.875 2.167 4.875Z"/><path stroke="#fff" d="M11.375 7h-9.75"/><path stroke="currentColor" d="M7.042 2.125H5.958a4.333 4.333 0 0 0-4.333 4.333v1.084a4.333 4.333 0 0 0 4.333 4.333h1.084a4.333 4.333 0 0 0 4.333-4.333V6.458a4.333 4.333 0 0 0-4.333-4.333Z"/></g><defs><clipPath id="a"><path fill="currentColor" d="M0 .5h13v13H0z"/></clipPath></defs></svg>
